<svg width="110" height="35" viewBox="0 0 110 35" fill="none" xmlns="http://www.w3.org/2000/svg">
<g clip-path="url(#clip0_222_1754)">
<path d="M57.9546 9.21435C57.9546 10.4493 56.9637 11.4442 55.7336 11.4442C54.5035 11.4442 53.5126 10.4493 53.5126 9.21435C53.5126 7.97937 54.4693 6.98452 55.7336 6.98452C56.9978 7.01882 57.9546 8.01367 57.9546 9.21435ZM48.7973 13.7083C48.7973 13.9142 48.7973 14.2572 48.7973 14.2572C48.7973 14.2572 47.738 12.885 45.4829 12.885C41.7584 12.885 38.8541 15.7323 38.8541 19.6774C38.8541 23.5882 41.7243 26.4698 45.4829 26.4698C47.7722 26.4698 48.7973 25.0633 48.7973 25.0633V25.6465C48.7973 25.921 49.0023 26.1268 49.2756 26.1268H52.0433V13.2281C52.0433 13.2281 49.5148 13.2281 49.2756 13.2281C49.0023 13.2281 48.7973 13.4682 48.7973 13.7083ZM48.7973 21.9759C48.2847 22.7306 47.2597 23.3824 46.0296 23.3824C43.8428 23.3824 42.1685 22.0102 42.1685 19.6774C42.1685 17.3447 43.8428 15.9725 46.0296 15.9725C47.2255 15.9725 48.3189 16.6586 48.7973 17.379V21.9759ZM54.0935 13.2281H57.3737V26.1268H54.0935V13.2281ZM103.092 12.885C100.837 12.885 99.7774 14.2572 99.7774 14.2572V7.01882H96.4972V26.1268C96.4972 26.1268 99.0257 26.1268 99.2649 26.1268C99.5382 26.1268 99.7433 25.8867 99.7433 25.6465V25.0633C99.7433 25.0633 100.802 26.4698 103.058 26.4698C106.782 26.4698 109.686 23.5882 109.686 19.6774C109.686 15.7666 106.782 12.885 103.092 12.885ZM102.545 23.3481C101.281 23.3481 100.29 22.6963 99.7774 21.9416V17.3447C100.29 16.6586 101.383 15.9382 102.545 15.9382C104.732 15.9382 106.406 17.3104 106.406 19.6431C106.406 21.9759 104.732 23.3481 102.545 23.3481ZM94.7887 18.4767V26.1611H91.5085V18.8541C91.5085 16.7272 90.8251 15.8695 88.98 15.8695C87.9891 15.8695 86.9641 16.3841 86.3148 17.1388V26.1268H83.0346V13.2281H85.6315C85.9048 13.2281 86.1098 13.4682 86.1098 13.7083V14.2572C87.0666 13.2624 88.3308 12.885 89.5951 12.885C91.0302 12.885 92.2261 13.2967 93.1828 14.12C94.3446 15.0805 94.7887 16.3155 94.7887 18.4767ZM75.0732 12.885C72.8181 12.885 71.7588 14.2572 71.7588 14.2572V7.01882H68.4786V26.1268C68.4786 26.1268 71.0071 26.1268 71.2463 26.1268C71.5197 26.1268 71.7247 25.8867 71.7247 25.6465V25.0633C71.7247 25.0633 72.7839 26.4698 75.0391 26.4698C78.7635 26.4698 81.6679 23.5882 81.6679 19.6774C81.702 15.7666 78.7977 12.885 75.0732 12.885ZM74.5265 23.3481C73.2623 23.3481 72.2714 22.6963 71.7588 21.9416V17.3447C72.2714 16.6586 73.3648 15.9382 74.5265 15.9382C76.7133 15.9382 78.3876 17.3104 78.3876 19.6431C78.3876 21.9759 76.7133 23.3481 74.5265 23.3481ZM65.6426 12.885C66.6335 12.885 67.146 13.0565 67.146 13.0565V16.1097C67.146 16.1097 64.4125 15.1834 62.7041 17.1388V26.1611H59.4238V13.2281C59.4238 13.2281 61.9523 13.2281 62.1915 13.2281C62.4649 13.2281 62.6699 13.4682 62.6699 13.7083V14.2572C63.2849 13.5368 64.6175 12.885 65.6426 12.885ZM31.5761 24.9604C31.4052 24.5487 31.2344 24.1028 31.0635 23.7254C30.7902 23.1079 30.5168 22.5247 30.2777 21.9759L30.2435 21.9416C27.8858 16.7958 25.3573 11.5814 22.6921 6.43563L22.5896 6.2298C22.3163 5.71523 22.0429 5.16634 21.7696 4.61746C21.4279 3.99997 21.0862 3.34817 20.5395 2.73068C19.4461 1.35847 17.8743 0.60376 16.2 0.60376C14.4916 0.60376 12.954 1.35847 11.8264 2.66207C11.3139 3.27956 10.938 3.93136 10.5963 4.54885C10.323 5.09773 10.0496 5.64662 9.77626 6.16119L9.67375 6.36702C7.04274 11.5128 4.48006 16.7272 2.1224 21.8729L2.08823 21.9416C1.84905 22.4904 1.57569 23.0736 1.30234 23.6911C1.1315 24.0685 0.960652 24.4801 0.789807 24.9261C0.34561 26.1954 0.208934 27.3961 0.379779 28.6311C0.755638 31.2039 2.46409 33.3652 4.82175 34.3257C5.71014 34.7031 6.63271 34.8746 7.58944 34.8746C7.86279 34.8746 8.20448 34.8403 8.47783 34.806C9.60541 34.6688 10.7672 34.2914 11.8947 33.6396C13.2957 32.8506 14.6283 31.7185 16.1317 30.0719C17.6351 31.7185 19.0019 32.8506 20.3687 33.6396C21.4962 34.2914 22.658 34.6688 23.7855 34.806C24.0589 34.8403 24.4006 34.8746 24.6739 34.8746C25.6307 34.8746 26.5874 34.7031 27.4416 34.3257C29.8335 33.3652 31.5077 31.1696 31.8836 28.6311C32.157 27.4304 32.0203 26.2297 31.5761 24.9604ZM16.1659 26.7443C14.3207 24.4115 13.1248 22.216 12.7148 20.3635C12.5439 19.5745 12.5098 18.8884 12.6123 18.2709C12.6806 17.722 12.8856 17.2418 13.159 16.8301C13.8082 15.9039 14.9016 15.3207 16.1659 15.3207C17.4301 15.3207 18.5577 15.8695 19.1727 16.8301C19.4461 17.2418 19.6511 17.722 19.7194 18.2709C19.8219 18.8884 19.7878 19.6088 19.6169 20.3635C19.2069 22.1817 18.011 24.3772 16.1659 26.7443ZM29.7993 28.3566C29.5601 30.1405 28.3642 31.6842 26.6899 32.3703C25.8699 32.7134 24.9815 32.8163 24.0931 32.7134C23.2388 32.6105 22.3846 32.336 21.4962 31.8214C20.2661 31.1353 19.0361 30.0719 17.601 28.4938C19.8561 25.7151 21.2229 23.1765 21.7354 20.9124C21.9746 19.8489 22.0088 18.8884 21.9063 17.9965C21.7696 17.1388 21.4621 16.3498 20.9837 15.6637C19.9245 14.12 18.1477 13.2281 16.1659 13.2281C14.1841 13.2281 12.4073 14.1543 11.348 15.6637C10.8697 16.3498 10.5621 17.1388 10.4255 17.9965C10.2888 18.8884 10.323 19.8833 10.5963 20.9124C11.1088 23.1765 12.5098 25.7494 14.7308 28.5281C13.3298 30.1062 12.0656 31.1696 10.8355 31.8557C9.9471 32.3703 9.09288 32.6448 8.23865 32.7477C7.31609 32.8506 6.42769 32.7134 5.64181 32.4046C3.96753 31.7185 2.77161 30.1748 2.53243 28.3909C2.42992 27.5333 2.49826 26.6757 2.83995 25.7151C2.94245 25.3721 3.1133 25.029 3.28414 24.6174C3.52333 24.0685 3.79668 23.4853 4.07003 22.9021L4.1042 22.8335C6.46186 17.722 8.99037 12.5076 11.6214 7.43048L11.7239 7.22465C11.9972 6.71007 12.2706 6.16119 12.5439 5.64662C12.8173 5.09773 13.1248 4.58316 13.5007 4.13719C14.2182 3.31387 15.175 2.8679 16.2342 2.8679C17.2934 2.8679 18.2502 3.31387 18.9677 4.13719C19.3436 4.58316 19.6511 5.09773 19.9245 5.64662C20.1978 6.16119 20.4712 6.71007 20.7445 7.22465L20.847 7.43048C23.4439 12.5419 25.9724 17.7563 28.33 22.8678V22.9021C28.6034 23.451 28.8426 24.0685 29.1159 24.6174C29.2868 25.029 29.4576 25.3721 29.5601 25.7151C29.8335 26.6071 29.936 27.4647 29.7993 28.3566Z" fill="white"/>
</g>
<defs>
<clipPath id="clip0_222_1754">
<rect width="109.375" height="34.2708" fill="white" transform="translate(0.3125 0.60376)"/>
</clipPath>
</defs>
</svg>
