<svg width="110" height="36" viewBox="0 0 110 36" fill="none" xmlns="http://www.w3.org/2000/svg">
<g clip-path="url(#clip0_222_1750)">
<path d="M108.92 24.7734C108.756 24.7734 108.592 24.8828 108.482 25.1562C107.386 28.3281 105.852 30.2422 104.591 30.2422C103.879 30.2422 103.605 29.4219 103.605 28.2188C103.605 25.1016 105.468 18.4844 106.4 15.4219C106.509 15.0391 106.564 14.7109 106.564 14.4375C106.564 13.5625 106.071 13.125 104.865 13.125C103.605 13.125 102.18 13.6172 100.865 15.9688C100.427 13.8906 99.0021 13.0156 97.0294 13.0156C94.7827 13.0156 92.5908 14.4922 90.7825 16.8438C88.9742 19.1953 86.8371 19.9609 85.248 19.5781C86.3987 16.7891 86.8371 14.6562 86.8371 13.125C86.8371 10.6641 85.6316 9.1875 83.6589 9.1875C80.6999 9.1875 79.0011 12.0312 79.0011 14.9844C79.0011 17.2812 80.0423 19.6328 82.3438 20.7812C80.4259 25.1016 77.6312 29.0391 76.5353 29.0391C75.1653 29.0391 74.727 22.3125 74.8366 17.5C74.8914 14.7656 75.1105 14.6016 75.1105 13.7812C75.1105 13.2891 74.7818 12.9609 73.5214 12.9609C70.6172 12.9609 69.6856 15.4219 69.576 18.2656C69.5212 19.3594 69.3568 20.3984 69.0829 21.4375C67.8773 25.7578 65.3567 29.0938 63.7127 29.0938C62.9456 29.0938 62.7264 28.3281 62.7264 27.3438C62.7264 24.2266 64.4799 20.2891 64.4799 16.9531C64.4799 14.4922 63.384 12.9609 61.3565 12.9609C58.9454 12.9609 55.822 15.8047 52.8081 21.1094C53.7945 17.0625 54.1781 13.125 51.2738 13.125C50.6162 13.125 50.0135 13.2891 49.4655 13.6172C49.0819 13.7812 48.8627 14.1641 48.8627 14.6016C49.1367 18.9219 45.3557 30.0234 41.7939 30.0234C41.1363 30.0234 40.8076 29.3125 40.8076 28.1641C40.8076 25.0469 42.6707 18.4297 43.6022 15.3672C43.7118 14.9844 43.7666 14.6562 43.7666 14.3281C43.7666 13.5078 43.2734 13.0703 42.0679 13.0703C40.8076 13.0703 39.3828 13.5625 38.0677 15.9141C37.5745 13.8359 36.2046 12.9609 34.2319 12.9609C30.9989 12.9609 27.4371 16.3516 25.8479 20.7812C23.7109 26.6875 19.4915 32.4297 13.7378 32.4297C8.53207 32.4297 5.79221 28.1094 5.79221 21.2734C5.79221 11.375 13.0802 3.33594 18.4503 3.33594C21.0258 3.33594 22.2313 4.97656 22.2313 7.49219C22.2313 10.5547 20.5326 11.9219 20.5326 13.125C20.5326 13.4531 20.8066 13.8359 21.4094 13.8359C23.7657 13.8359 26.5055 11.1016 26.5055 7.32812C26.5055 3.55469 23.5465 0.875 18.1764 0.875C9.24443 0.875 0.3125 9.78906 0.3125 21.2734C0.3125 30.4062 4.80586 35.875 12.5871 35.875C17.9024 35.875 22.5601 31.7734 25.026 26.9609C25.3 30.9531 27.1083 33.0312 29.9029 33.0312C32.3688 33.0312 34.3415 31.5547 35.8758 28.9844C36.4786 31.6641 38.0129 32.9766 40.0404 32.9766C42.3419 32.9766 44.3146 31.5 46.1229 28.8203C46.1229 30.9531 46.5613 32.9766 48.4244 32.9766C49.3011 32.9766 50.3423 32.7578 50.5066 31.9922C52.4793 23.9531 57.3015 17.3359 58.781 17.3359C59.2194 17.3359 59.329 17.7734 59.329 18.2656C59.329 20.4531 57.7947 24.9375 57.7947 27.7812C57.7947 30.8984 59.1098 32.9219 61.8496 32.9219C64.8635 32.9219 67.9321 29.2578 69.9596 23.8438C70.6172 28.875 71.9871 32.9219 74.1242 32.9219C76.7545 32.9219 81.5218 27.3438 84.3712 21.4375C85.4672 21.6016 87.1659 21.5469 88.8098 20.3984C88.0975 22.1484 87.7139 24.0625 87.7139 25.9219C87.7139 31.3906 90.3441 32.9219 92.5908 32.9219C95.0567 32.9219 97.0294 31.4453 98.5637 28.875C99.0569 31.1719 100.372 32.8672 102.728 32.8672C106.4 32.8672 109.633 29.0938 109.633 25.9766C109.688 25.3203 109.304 24.7734 108.92 24.7734ZM32.2044 29.9688C30.7249 29.9688 30.1221 28.4922 30.1221 26.25C30.1221 22.3672 32.8072 15.8594 35.6018 15.8594C36.8074 15.8594 37.3005 17.2812 37.3005 19.0859C37.3005 23.0234 34.7799 29.9688 32.2044 29.9688ZM83.3301 18.375C82.4534 17.3359 82.1246 15.8594 82.1246 14.6016C82.1246 13.0156 82.7273 11.7031 83.3849 11.7031C84.0425 11.7031 84.3165 12.3594 84.3165 13.3438C84.2617 14.875 83.7137 17.2266 83.3301 18.375ZM94.8923 29.9688C93.4128 29.9688 92.81 28.2188 92.81 26.25C92.81 22.4766 95.4951 15.8594 98.2897 15.8594C99.4953 15.8594 99.9336 17.2812 99.9336 19.0859C99.9884 23.0234 97.5226 29.9688 94.8923 29.9688Z" fill="white"/>
</g>
<defs>
<clipPath id="clip0_222_1750">
<rect width="109.375" height="35" fill="white" transform="translate(0.3125 0.875)"/>
</clipPath>
</defs>
</svg>
