<svg width="110" height="35" viewBox="0 0 110 35" fill="none" xmlns="http://www.w3.org/2000/svg">
<g clip-path="url(#clip0_222_1740)">
<path d="M13.9941 12.8322V16.493H22.8286C22.594 18.5181 21.8904 20.0758 20.7959 21.0884C19.545 22.3346 17.5123 23.7366 13.9941 23.7366C8.59967 23.7366 4.3779 19.3748 4.3779 14.0005C4.3779 8.62625 8.52149 4.26451 13.9941 4.26451C16.8868 4.26451 19.0759 5.43283 20.6395 6.91271L23.2195 4.3424C21.0304 2.23941 18.0596 0.60376 13.9941 0.60376C6.56697 0.60376 0.3125 6.60116 0.3125 14.0005C0.3125 21.3999 6.56697 27.3973 13.9941 27.3973C17.9814 27.3973 21.0304 26.0732 23.3758 23.6587C25.7995 21.2442 26.5813 17.8171 26.5813 15.091C26.5813 14.2342 26.5031 13.4553 26.4249 12.8322H13.9941Z" fill="white"/>
<path d="M37.5258 9.79456C32.7568 9.79456 28.7695 13.4553 28.7695 18.4402C28.7695 23.425 32.6786 27.0857 37.5258 27.0857C42.373 27.0857 46.282 23.5029 46.282 18.518C46.282 13.4553 42.373 9.79456 37.5258 9.79456ZM37.5258 23.7366C34.8676 23.7366 32.6004 21.5557 32.6004 18.518C32.6004 15.4025 34.8676 13.2995 37.5258 13.2995C40.1839 13.2995 42.4512 15.4025 42.4512 18.518C42.4512 21.5557 40.1839 23.7366 37.5258 23.7366Z" fill="white"/>
<path d="M80.2905 11.7418H80.1341C79.2741 10.7292 77.6323 9.79456 75.5214 9.79456C71.1433 9.79456 67.3906 13.5332 67.3906 18.4402C67.3906 23.2692 71.1433 27.0858 75.5214 27.0858C77.6323 27.0858 79.2741 26.1511 80.1341 25.1385H80.2905V26.3848C80.2905 29.6561 78.4923 31.4475 75.6778 31.4475C73.3324 31.4475 71.9251 29.8118 71.2997 28.332L68.0161 29.734C68.9542 31.9927 71.5342 34.8746 75.756 34.8746C80.2123 34.8746 84.0431 32.2264 84.0431 25.8395V10.2619H80.4468V11.7418H80.2905ZM75.9123 23.7366C73.2542 23.7366 71.2997 21.4778 71.2997 18.518C71.2997 15.4804 73.3324 13.2995 75.9123 13.2995C78.4923 13.2995 80.525 15.5583 80.525 18.5959C80.6032 21.5557 78.5705 23.7366 75.9123 23.7366Z" fill="white"/>
<path d="M56.9945 9.79456C52.2255 9.79456 48.2383 13.4553 48.2383 18.4402C48.2383 23.425 52.1473 27.0857 56.9945 27.0857C61.8417 27.0857 65.7508 23.5029 65.7508 18.518C65.7508 13.4553 61.8417 9.79456 56.9945 9.79456ZM56.9945 23.7366C54.3364 23.7366 52.0691 21.5557 52.0691 18.518C52.0691 15.4025 54.3364 13.2995 56.9945 13.2995C59.6527 13.2995 61.9199 15.4025 61.9199 18.518C61.9199 21.5557 59.6527 23.7366 56.9945 23.7366Z" fill="white"/>
<path d="M86.9375 0.993164H90.6902V27.1636H86.9375V0.993164Z" fill="white"/>
<path d="M102.26 23.7366C100.306 23.7366 98.9765 22.8798 98.0383 21.0884L109.687 16.3372L109.296 15.3246C108.593 13.3774 106.325 9.79456 101.869 9.79456C97.4128 9.79456 93.6602 13.2995 93.6602 18.4402C93.6602 23.2692 97.3346 27.0857 102.26 27.0857C106.247 27.0857 108.515 24.6712 109.531 23.2692L106.56 21.322C105.544 22.8019 104.215 23.7366 102.26 23.7366ZM102.026 13.0659C103.589 13.0659 104.918 13.8447 105.309 14.9352L97.491 18.2065C97.4128 14.6236 100.071 13.0659 102.026 13.0659Z" fill="white"/>
</g>
<defs>
<clipPath id="clip0_222_1740">
<rect width="109.375" height="34.2708" fill="white" transform="translate(0.3125 0.60376)"/>
</clipPath>
</defs>
</svg>
