<svg width="110" height="46" viewBox="0 0 110 46" fill="none" xmlns="http://www.w3.org/2000/svg">
<g clip-path="url(#clip0_222_1712)">
<path d="M91.5159 31.4868C89.4968 31.5158 88.4218 30.2312 88.4218 27.9522C88.4218 27.7998 88.4291 27.6546 88.4364 27.5095H96.3677C96.5274 26.9071 96.6291 26.2538 96.6291 25.6514C96.6291 22.8716 94.9223 20.7523 91.436 20.7523C87.8698 20.7523 84.7031 24.2652 84.7031 27.9522C84.7031 31.4868 87.0128 33.6352 90.8622 33.6352C92.5691 33.6352 94.2468 33.0618 95.4235 32.1691L94.6899 30.3328C93.7675 31.0368 92.6417 31.4578 91.5159 31.4868ZM91.4869 22.7337C92.6635 22.7337 93.2663 23.4958 93.2663 25.1724C93.2663 25.3321 93.2591 25.499 93.2373 25.6732H88.7124C89.2135 23.9095 90.2594 22.7337 91.4869 22.7337Z" fill="white"/>
<path d="M60.117 19.9612C60.117 17.0798 57.8655 14.9823 54.4518 14.9823H47.8497L42.8672 33.3159H47.0362L48.8738 26.5587H52.4908C56.6308 26.5587 60.117 23.8878 60.117 19.9612ZM50.8856 24.4104H49.4548L51.4304 17.1306H52.9338C54.8295 17.1306 55.8972 18.4153 55.8972 20.1137C55.8972 22.8426 53.7546 24.4104 50.8856 24.4104Z" fill="white"/>
<path d="M65.5424 21.0863L66.0072 19.3806C66.2396 18.4879 66.6391 16.971 67.1838 15.2146C67.7576 13.4074 68.8107 12.2824 70.2271 12.2824C70.9098 12.2824 71.331 12.5945 71.331 13.117C71.302 13.6904 70.8299 14.0315 70.8299 14.9533C70.8299 16.0275 71.745 16.8621 72.9289 16.8621C74.3961 16.8621 75.5727 15.6864 75.5727 14.242C75.5727 12.0138 73.6625 10.5477 70.75 10.5477C66.4793 10.5477 63.6757 13.2695 61.9181 19.6347L54.793 45.5528H58.8313L64.9904 23.104H69.1884L66.4285 33.3159H70.4667L73.7714 21.0863H65.5424Z" fill="white"/>
<path d="M85.9899 21.0862H75.2914L74.7685 23.1039H79.9471L71.9141 33.3158H83.2372L83.7602 31.2981H77.9352L85.9899 21.0862Z" fill="white"/>
<path d="M107.169 20.8757C105.724 20.8757 104.184 21.812 102.978 23.7499L103.683 21.0862H99.6446L96.3398 33.3158H100.378L101.874 27.8143C102.477 25.5644 103.944 23.3579 104.918 23.3579C105.963 23.3579 105.571 25.3248 107.38 25.3248C108.687 25.3248 109.479 24.12 109.479 23.0168C109.472 21.7394 108.447 20.8757 107.169 20.8757Z" fill="white"/>
<path d="M5.21595 21.7176C8.30277 20.5781 13.5612 20.2878 20.5338 21.0862L22.5893 13.3202C14.6435 12.2315 6.29815 13.0371 4.35164 15.8315C3.49459 17.0871 3.26944 19.7145 5.21595 21.7176ZM35.8517 20.462C32.7649 21.6015 27.5064 21.8918 20.5338 21.0935L18.4784 28.8595C26.4242 29.9481 34.7695 29.1425 36.716 26.3482C37.5731 25.0853 37.7982 22.458 35.8517 20.462ZM38.5971 23.1983L39.8537 18.5169C40.3112 16.8621 40.5364 16.0056 40.5364 15.3161C40.5364 9.32108 24.8118 2.00508 9.83528 1.09058L7.72172 8.85657C23.1558 9.94526 38.9385 17.4282 38.5318 23.1983H38.5971ZM2.4705 18.9741L1.21398 23.6555C0.756406 25.3103 0.53125 26.1668 0.53125 26.8563C0.53125 32.8513 16.2559 40.1673 31.2324 41.0818L33.3459 33.3158C17.9046 32.2271 2.12913 24.7442 2.5286 18.9741H2.4705Z" fill="white"/>
</g>
<defs>
<clipPath id="clip0_222_1712">
<rect width="109.375" height="45.1008" fill="white" transform="translate(0.3125 0.77124)"/>
</clipPath>
</defs>
</svg>
