<svg width="110" height="53" viewBox="0 0 110 53" fill="none" xmlns="http://www.w3.org/2000/svg">
<path fill-rule="evenodd" clip-rule="evenodd" d="M97.0676 26.6965C97.0676 20.698 94.1696 15.9648 88.6307 15.9648C83.0685 15.9648 79.7031 20.698 79.7031 26.6497C79.7031 33.7026 83.6761 37.2642 89.3786 37.2642C92.1597 37.2642 94.2631 36.6316 95.8523 35.7412V31.0548C94.2631 31.8515 92.4402 32.3436 90.1265 32.3436C87.8595 32.3436 85.8496 31.5469 85.5925 28.782H97.0208C97.0208 28.4773 97.0676 27.2589 97.0676 26.6965ZM85.5224 24.4705C85.5224 21.8228 87.135 20.7215 88.6074 20.7215C90.033 20.7215 91.5521 21.8228 91.5521 24.4705H85.5224Z" fill="white"/>
<path fill-rule="evenodd" clip-rule="evenodd" d="M70.6823 15.9648C68.392 15.9648 66.9196 17.0427 66.1016 17.7925L65.7978 16.3397H60.6562V43.6611L66.4989 42.4192L66.5223 35.788C67.3636 36.3972 68.6023 37.2642 70.6589 37.2642C74.8423 37.2642 78.6517 33.8901 78.6517 26.4622C78.6283 19.667 74.7722 15.9648 70.6823 15.9648ZM69.28 32.1092C67.9012 32.1092 67.0832 31.6172 66.5223 31.008L66.4989 22.3148C67.1066 21.6353 67.9479 21.1667 69.28 21.1667C71.4068 21.1667 72.8791 23.5567 72.8791 26.6262C72.8791 29.7661 71.4302 32.1092 69.28 32.1092Z" fill="white"/>
<path fill-rule="evenodd" clip-rule="evenodd" d="M52.6172 14.5824L58.4832 13.317V8.56042L52.6172 9.8023V14.5824Z" fill="white"/>
<path d="M58.4832 16.3632H52.6172V36.8659H58.4832V16.3632Z" fill="white"/>
<path fill-rule="evenodd" clip-rule="evenodd" d="M46.3322 18.0971L45.9582 16.3632H40.9102V36.8659H46.7528V22.9709C48.1317 21.1667 50.4688 21.4947 51.1933 21.7525V16.3632C50.4454 16.082 47.711 15.5665 46.3322 18.0971Z" fill="white"/>
<path fill-rule="evenodd" clip-rule="evenodd" d="M34.6438 11.2784L28.9413 12.4969L28.918 31.2656C28.918 34.7335 31.5121 37.2876 34.971 37.2876C36.8874 37.2876 38.2896 36.9361 39.0609 36.5143V31.7577C38.313 32.0623 34.6204 33.1402 34.6204 29.6723V21.3541H39.0609V16.3631H34.6204L34.6438 11.2784Z" fill="white"/>
<path fill-rule="evenodd" clip-rule="evenodd" d="M18.8464 22.3148C18.8464 21.401 19.5943 21.0495 20.8329 21.0495C22.6091 21.0495 24.8527 21.5884 26.6288 22.5491V17.0427C24.6891 16.2695 22.7727 15.9648 20.8329 15.9648C16.0886 15.9648 12.9336 18.4486 12.9336 22.596C12.9336 29.0631 21.8145 28.0321 21.8145 30.8205C21.8145 31.8984 20.8796 32.2498 19.5709 32.2498C17.6311 32.2498 15.1538 31.4532 13.1907 30.3753V35.952C15.3641 36.8893 17.561 37.2876 19.5709 37.2876C24.432 37.2876 27.774 34.8742 27.774 30.6799C27.7506 23.6973 18.8464 24.9392 18.8464 22.3148Z" fill="white"/>
</svg>
